<svg width="100%" height="100%" viewBox="0 0 1500 2100" version="1.1" xmlns="http://www.w3.org/2000/svg" xmlns:xlink="http://www.w3.org/1999/xlink" xml:space="preserve" xmlns:serif="http://www.serif.com/" style="fill-rule:evenodd;clip-rule:evenodd;stroke-linejoin:round;stroke-miterlimit:2;">
    <g transform="matrix(2,0,0,2,0,0)">
        <path d="M750,37.5C750,16.803 733.197,0 712.5,0L37.5,0C16.803,0 0,16.803 0,37.5L0,1012.5C0,1033.197 16.803,1050 37.5,1050L712.5,1050C733.197,1050 750,1033.197 750,1012.5L750,37.5Z" style="fill:white;"/>
    </g>
    <g id="diamonds">
        <g>
            <g>
                <g id="j" transform="matrix(67.677784,0,0,67.677784,-20585.574827,-9841.477583)">
                    <path d="M320.35,173.68C319.76,172.646 319.058,171.68 318.257,170.799C319.058,169.918 319.76,168.952 320.35,167.917C320.94,168.952 321.642,169.918 322.443,170.799C321.642,171.68 320.94,172.646 320.35,173.68Z" style="fill:rgb(204,0,0);"/>
                </g>
                <g id="j1" serif:id="j" transform="matrix(67.677784,0,0,67.677784,-21275.574827,-9841.477583)">
                    <path d="M320.35,173.68C319.76,172.646 319.058,171.68 318.257,170.799C319.058,169.918 319.76,168.952 320.35,167.917C320.94,168.952 321.642,169.918 322.443,170.799C321.642,171.68 320.94,172.646 320.35,173.68Z" style="fill:rgb(204,0,0);"/>
                </g>
                <g id="j2" serif:id="j" transform="matrix(67.677784,0,0,67.677784,-20585.574827,-11176.477583)">
                    <path d="M320.35,173.68C319.76,172.646 319.058,171.68 318.257,170.799C319.058,169.918 319.76,168.952 320.35,167.917C320.94,168.952 321.642,169.918 322.443,170.799C321.642,171.68 320.94,172.646 320.35,173.68Z" style="fill:rgb(204,0,0);"/>
                </g>
                <g id="j3" serif:id="j" transform="matrix(67.677784,0,0,67.677784,-21275.574827,-10509.277583)">
                    <path d="M320.35,173.68C319.76,172.646 319.058,171.68 318.257,170.799C319.058,169.918 319.76,168.952 320.35,167.917C320.94,168.952 321.642,169.918 322.443,170.799C321.642,171.68 320.94,172.646 320.35,173.68Z" style="fill:rgb(204,0,0);"/>
                </g>
                <g id="j4" serif:id="j" transform="matrix(67.677784,0,0,67.677784,-20930.574827,-10842.877583)">
                    <path d="M320.35,173.68C319.76,172.646 319.058,171.68 318.257,170.799C319.058,169.918 319.76,168.952 320.35,167.917C320.94,168.952 321.642,169.918 322.443,170.799C321.642,171.68 320.94,172.646 320.35,173.68Z" style="fill:rgb(204,0,0);"/>
                </g>
                <g id="j5" serif:id="j" transform="matrix(67.677784,0,0,67.677784,-20585.574827,-10509.277583)">
                    <path d="M320.35,173.68C319.76,172.646 319.058,171.68 318.257,170.799C319.058,169.918 319.76,168.952 320.35,167.917C320.94,168.952 321.642,169.918 322.443,170.799C321.642,171.68 320.94,172.646 320.35,173.68Z" style="fill:rgb(204,0,0);"/>
                </g>
                <g id="j6" serif:id="j" transform="matrix(67.677784,0,0,67.677784,-21275.574827,-11176.477583)">
                    <path d="M320.35,173.68C319.76,172.646 319.058,171.68 318.257,170.799C319.058,169.918 319.76,168.952 320.35,167.917C320.94,168.952 321.642,169.918 322.443,170.799C321.642,171.68 320.94,172.646 320.35,173.68Z" style="fill:rgb(204,0,0);"/>
                </g>
            </g>
            <g transform="matrix(2,0,0,2,0,0)">
                <g transform="matrix(7.508436,0,0,7.508436,-3551.300713,-3.787964)">
                    <path d="M478.5,7.5L477,7.5L477,4.5L484.561,4.5L486.01,5.95L485.58,6.475C483.416,9.12 481.5,13.931 481.5,18.5L480,18.5C480,13.864 481.841,9.001 484.003,6.063L483.939,6L478.5,6L478.5,7.5Z" style="fill:rgb(204,0,0);"/>
                </g>
                <g transform="matrix(0.720725,0,0,0.55625,-140.25,-311.633858)">
                    <rect x="236.22" y="614.173" width="94.488" height="188.976" style="fill:none;"/>
                </g>
                <g id="j7" serif:id="j" transform="matrix(12.685443,0,0,12.685443,-3999.730987,-1979.961109)">
                    <path d="M320.35,173.68C319.76,172.646 319.058,171.68 318.257,170.799C319.058,169.918 319.76,168.952 320.35,167.917C320.94,168.952 321.642,169.918 322.443,170.799C321.642,171.68 320.94,172.646 320.35,173.68Z" style="fill:rgb(204,0,0);"/>
                </g>
                <g id="j8" serif:id="j" transform="matrix(12.685443,0,0,12.685443,-3377.830987,-1303.353191)">
                    <path d="M320.35,173.68C319.76,172.646 319.058,171.68 318.257,170.799C319.058,169.918 319.76,168.952 320.35,167.917C320.94,168.952 321.642,169.918 322.443,170.799C321.642,171.68 320.94,172.646 320.35,173.68Z" style="fill:rgb(204,0,0);"/>
                </g>
                <g transform="matrix(-7.508436,-0,0,-7.508436,4301.300713,1053.787964)">
                    <path d="M478.5,7.5L477,7.5L477,4.5L484.561,4.5L486.01,5.95L485.58,6.475C483.416,9.12 481.5,13.931 481.5,18.5L480,18.5C480,13.864 481.841,9.001 484.003,6.063L483.939,6L478.5,6L478.5,7.5Z" style="fill:rgb(204,0,0);"/>
                </g>
                <g transform="matrix(-0.720725,-0,0,-0.55625,890.25,1361.633858)">
                    <rect x="236.22" y="614.173" width="94.488" height="188.976" style="fill:none;"/>
                </g>
            </g>
        </g>
    </g>
</svg>